<?xml version="1.0" standalone="no"?><!DOCTYPE svg PUBLIC "-//W3C//DTD SVG 1.1//EN" "http://www.w3.org/Graphics/SVG/1.1/DTD/svg11.dtd"><svg t="1761709644792" class="icon" viewBox="0 0 1024 1024" version="1.1" xmlns="http://www.w3.org/2000/svg" p-id="2514" xmlns:xlink="http://www.w3.org/1999/xlink" width="200" height="200"><path d="M669.184 395.84L552.96 512l116.16 116.16a28.928 28.928 0 1 1-41.024 40.96L512 552.96l-116.096 116.096a28.992 28.992 0 0 1-40.96-40.96L471.04 512 354.88 395.84a28.992 28.992 0 1 1 41.024-40.96L512 471.04l116.16-116.16a28.992 28.992 0 1 1 40.96 40.96M512 966.08C261.632 966.08 57.984 762.368 57.984 512A454.528 454.528 0 0 1 512 57.92 454.528 454.528 0 0 1 966.08 512c0 250.368-203.648 454.08-454.08 454.08M512 0C229.76 0 0 229.696 0 512s229.696 512 512 512c282.368 0 512-229.696 512-512s-229.632-512-512-512" fill="#626262" p-id="2515"></path></svg>